<mxfile host="app.diagrams.net" modified="2020-10-21T20:25:23.432Z" agent="5.0 (Windows NT 10.0; Win64; x64) AppleWebKit/537.36 (KHTML, like Gecko) Chrome/86.0.4240.75 Safari/537.36" etag="GMb5MRazxug1LUajBArp" version="13.8.1" type="github">
  <diagram name="Page-1" id="97916047-d0de-89f5-080d-49f4d83e522f">
    <mxGraphModel dx="1583" dy="689" grid="1" gridSize="10" guides="1" tooltips="1" connect="1" arrows="1" fold="1" page="1" pageScale="1.5" pageWidth="1169" pageHeight="827" background="#ffffff" math="0" shadow="0">
      <root>
        <mxCell id="0" />
        <mxCell id="1" parent="0" />
        <mxCell id="2" value="Proyecto X" style="rounded=1;fillColor=#10739E;strokeColor=none;shadow=1;gradientColor=none;fontStyle=1;fontColor=#FFFFFF;fontSize=14;" parent="1" vertex="1">
          <mxGeometry x="690" y="190" width="200" height="60" as="geometry" />
        </mxCell>
        <mxCell id="3" value="Tarea A / Jose" style="rounded=1;fillColor=#10739E;strokeColor=none;shadow=1;gradientColor=none;fontStyle=1;fontColor=#FFFFFF;fontSize=14;" parent="1" vertex="1">
          <mxGeometry x="340" y="345.5" width="220" height="60" as="geometry" />
        </mxCell>
        <mxCell id="5" value="Tarea B / Ana" style="rounded=1;fillColor=#10739E;strokeColor=none;shadow=1;gradientColor=none;fontStyle=1;fontColor=#FFFFFF;fontSize=14;" parent="1" vertex="1">
          <mxGeometry x="1020" y="345.5" width="200" height="60" as="geometry" />
        </mxCell>
        <mxCell id="13" value="Tarea C / Jose" style="rounded=1;fillColor=#10739E;strokeColor=none;shadow=1;gradientColor=none;fontStyle=1;fontColor=#FFFFFF;fontSize=14;" parent="1" vertex="1">
          <mxGeometry x="190" y="580" width="200" height="60" as="geometry" />
        </mxCell>
        <mxCell id="18" value="Tarea E / Ana" style="rounded=1;fillColor=#10739E;strokeColor=none;shadow=1;gradientColor=none;fontStyle=1;fontColor=#FFFFFF;fontSize=14;" parent="1" vertex="1">
          <mxGeometry x="910" y="580" width="200" height="60" as="geometry" />
        </mxCell>
        <mxCell id="23" value="Tarea D / Maria" style="rounded=1;fillColor=#10739E;strokeColor=none;shadow=1;gradientColor=none;fontStyle=1;fontColor=#FFFFFF;fontSize=14;" parent="1" vertex="1">
          <mxGeometry x="510" y="580" width="200" height="60" as="geometry" />
        </mxCell>
        <mxCell id="29" value="" style="edgeStyle=elbowEdgeStyle;elbow=vertical;strokeWidth=4;endArrow=block;endFill=1;fontStyle=1;strokeColor=#23445D;exitX=0.5;exitY=1;exitDx=0;exitDy=0;" parent="1" source="2" target="3" edge="1">
          <mxGeometry x="22" y="165.5" width="100" height="100" as="geometry">
            <mxPoint x="22" y="265.5" as="sourcePoint" />
            <mxPoint x="122" y="165.5" as="targetPoint" />
            <Array as="points">
              <mxPoint x="790" y="310" />
              <mxPoint x="780" y="260" />
            </Array>
          </mxGeometry>
        </mxCell>
        <mxCell id="37" value="" style="edgeStyle=elbowEdgeStyle;elbow=vertical;strokeWidth=4;endArrow=block;endFill=1;fontStyle=1;strokeColor=#23445D;entryX=0.5;entryY=0;entryDx=0;entryDy=0;exitX=0.5;exitY=1;exitDx=0;exitDy=0;" parent="1" source="3" target="23" edge="1">
          <mxGeometry x="22" y="165.5" width="100" height="100" as="geometry">
            <mxPoint x="652" y="410" as="sourcePoint" />
            <mxPoint x="122" y="165.5" as="targetPoint" />
            <Array as="points">
              <mxPoint x="550" y="480" />
              <mxPoint x="640" y="460" />
              <mxPoint x="680" y="410" />
              <mxPoint x="972" y="555.5" />
            </Array>
          </mxGeometry>
        </mxCell>
        <mxCell id="54" value="" style="edgeStyle=elbowEdgeStyle;elbow=vertical;strokeWidth=4;endArrow=block;endFill=1;fontStyle=1;strokeColor=#23445D;exitX=0.5;exitY=1;exitDx=0;exitDy=0;entryX=0.5;entryY=0;entryDx=0;entryDy=0;" parent="1" source="3" target="13" edge="1">
          <mxGeometry x="22" y="165.5" width="100" height="100" as="geometry">
            <mxPoint x="22" y="265.5" as="sourcePoint" />
            <mxPoint x="122" y="165.5" as="targetPoint" />
            <Array as="points">
              <mxPoint x="440" y="480" />
              <mxPoint x="590" y="460" />
              <mxPoint x="640" y="440" />
              <mxPoint x="580" y="460" />
              <mxPoint x="640" y="440" />
              <mxPoint x="600" y="470" />
              <mxPoint x="652" y="555.5" />
            </Array>
          </mxGeometry>
        </mxCell>
        <mxCell id="MonK_nBEftqNI48fa0WK-55" value="" style="edgeStyle=elbowEdgeStyle;elbow=vertical;strokeWidth=4;endArrow=block;endFill=1;fontStyle=1;strokeColor=#23445D;exitX=0.5;exitY=1;exitDx=0;exitDy=0;entryX=0.5;entryY=0;entryDx=0;entryDy=0;" edge="1" parent="1" source="2" target="5">
          <mxGeometry x="60" y="165.5" width="100" height="100" as="geometry">
            <mxPoint x="810" y="250" as="sourcePoint" />
            <mxPoint x="690" y="345.5" as="targetPoint" />
            <Array as="points">
              <mxPoint x="800" y="310" />
              <mxPoint x="780" y="290" />
              <mxPoint x="828" y="310" />
              <mxPoint x="818" y="260" />
            </Array>
          </mxGeometry>
        </mxCell>
        <mxCell id="MonK_nBEftqNI48fa0WK-56" value="Tarea F / Rene" style="rounded=1;fillColor=#10739E;strokeColor=none;shadow=1;gradientColor=none;fontStyle=1;fontColor=#FFFFFF;fontSize=14;" vertex="1" parent="1">
          <mxGeometry x="1150" y="580" width="200" height="60" as="geometry" />
        </mxCell>
        <mxCell id="MonK_nBEftqNI48fa0WK-58" value="" style="edgeStyle=elbowEdgeStyle;elbow=vertical;strokeWidth=4;endArrow=block;endFill=1;fontStyle=1;strokeColor=#23445D;entryX=0.5;entryY=0;entryDx=0;entryDy=0;exitX=0.5;exitY=1;exitDx=0;exitDy=0;" edge="1" parent="1" source="5" target="MonK_nBEftqNI48fa0WK-56">
          <mxGeometry x="602" y="165.5" width="100" height="100" as="geometry">
            <mxPoint x="1070" y="405.5" as="sourcePoint" />
            <mxPoint x="1270" y="580" as="targetPoint" />
            <Array as="points">
              <mxPoint x="1150" y="490" />
              <mxPoint x="1260" y="410" />
              <mxPoint x="1552" y="555.5" />
            </Array>
          </mxGeometry>
        </mxCell>
        <mxCell id="MonK_nBEftqNI48fa0WK-59" value="" style="edgeStyle=elbowEdgeStyle;elbow=vertical;strokeWidth=4;endArrow=block;endFill=1;fontStyle=1;strokeColor=#23445D;exitX=0.5;exitY=1;exitDx=0;exitDy=0;entryX=0.5;entryY=0;entryDx=0;entryDy=0;" edge="1" parent="1" source="5" target="18">
          <mxGeometry x="604" y="160" width="100" height="100" as="geometry">
            <mxPoint x="1072" y="400" as="sourcePoint" />
            <mxPoint x="872" y="574.5" as="targetPoint" />
            <Array as="points">
              <mxPoint x="1000" y="490" />
              <mxPoint x="1172" y="454.5" />
              <mxPoint x="1222" y="434.5" />
              <mxPoint x="1162" y="454.5" />
              <mxPoint x="1222" y="434.5" />
              <mxPoint x="1182" y="464.5" />
              <mxPoint x="1234" y="550" />
            </Array>
          </mxGeometry>
        </mxCell>
        <mxCell id="MonK_nBEftqNI48fa0WK-60" value="Tarea G / Luis" style="rounded=1;fillColor=#10739E;strokeColor=none;shadow=1;gradientColor=none;fontStyle=1;fontColor=#FFFFFF;fontSize=14;" vertex="1" parent="1">
          <mxGeometry x="710" y="760" width="200" height="60" as="geometry" />
        </mxCell>
        <mxCell id="MonK_nBEftqNI48fa0WK-61" value="Tarea H / Jose" style="rounded=1;fillColor=#10739E;strokeColor=none;shadow=1;gradientColor=none;fontStyle=1;fontColor=#FFFFFF;fontSize=14;" vertex="1" parent="1">
          <mxGeometry x="710" y="940" width="200" height="60" as="geometry" />
        </mxCell>
        <mxCell id="MonK_nBEftqNI48fa0WK-62" value="" style="edgeStyle=elbowEdgeStyle;elbow=vertical;strokeWidth=4;endArrow=block;endFill=1;fontStyle=1;strokeColor=#23445D;exitX=0.5;exitY=1;exitDx=0;exitDy=0;entryX=0.5;entryY=0;entryDx=0;entryDy=0;" edge="1" parent="1" source="18" target="MonK_nBEftqNI48fa0WK-60">
          <mxGeometry x="474" y="354.5" width="100" height="100" as="geometry">
            <mxPoint x="930" y="600" as="sourcePoint" />
            <mxPoint x="810" y="750" as="targetPoint" />
            <Array as="points">
              <mxPoint x="850" y="690" />
              <mxPoint x="870" y="684.5" />
              <mxPoint x="1042" y="649" />
              <mxPoint x="1092" y="629" />
              <mxPoint x="1032" y="649" />
              <mxPoint x="1092" y="629" />
              <mxPoint x="1052" y="659" />
              <mxPoint x="1104" y="744.5" />
            </Array>
          </mxGeometry>
        </mxCell>
        <mxCell id="MonK_nBEftqNI48fa0WK-63" value="" style="edgeStyle=elbowEdgeStyle;elbow=vertical;strokeWidth=4;endArrow=block;endFill=1;fontStyle=1;strokeColor=#23445D;entryX=0.5;entryY=0;entryDx=0;entryDy=0;exitX=0.5;exitY=1;exitDx=0;exitDy=0;" edge="1" parent="1" source="23" target="MonK_nBEftqNI48fa0WK-60">
          <mxGeometry x="172" y="440" width="100" height="100" as="geometry">
            <mxPoint x="640" y="680" as="sourcePoint" />
            <mxPoint x="840" y="854.5" as="targetPoint" />
            <Array as="points">
              <mxPoint x="720" y="690" />
              <mxPoint x="720" y="680" />
              <mxPoint x="790" y="734.5" />
              <mxPoint x="830" y="684.5" />
              <mxPoint x="1122" y="830" />
            </Array>
          </mxGeometry>
        </mxCell>
        <mxCell id="MonK_nBEftqNI48fa0WK-64" value="" style="edgeStyle=elbowEdgeStyle;elbow=vertical;strokeWidth=4;endArrow=block;endFill=1;fontStyle=1;strokeColor=#23445D;entryX=0.5;entryY=0;entryDx=0;entryDy=0;exitX=0.5;exitY=1;exitDx=0;exitDy=0;" edge="1" parent="1" source="MonK_nBEftqNI48fa0WK-60" target="MonK_nBEftqNI48fa0WK-61">
          <mxGeometry x="-48" y="500" width="100" height="100" as="geometry">
            <mxPoint x="420" y="740" as="sourcePoint" />
            <mxPoint x="620" y="914.5" as="targetPoint" />
            <Array as="points">
              <mxPoint x="800" y="880" />
              <mxPoint x="570" y="794.5" />
              <mxPoint x="610" y="744.5" />
              <mxPoint x="902" y="890" />
            </Array>
          </mxGeometry>
        </mxCell>
      </root>
    </mxGraphModel>
  </diagram>
</mxfile>
